<svg xmlns="http://www.w3.org/2000/svg" xmlns:xlink="http://www.w3.org/1999/xlink" x="0px" y="0px" width="96px" height="16px" viewBox="0 0 96 16">
	<!-- <g  transform="translate(0, 0)"><path fill="#ffffff" d="M13,11H3c-0.6,0-1-0.4-1-1V2H0V0h3c0.6,0,1,0.4,1,1v1h11c0.9,0,1,1,1,1.3l-2,7C13.8,10.7,13.4,11,13,11z
	 M4,9h8.2l1.4-5H4V9z"/>
<circle data-color="color-2" fill="#ffffff" cx="3" cy="14" r="2"/>
<circle data-color="color-2" fill="#ffffff" cx="13" cy="14" r="2"/></g>
 -->
<g  transform="translate(0, 0)"><path fill="#ffffff" d="M10.6515,2.3645c-0.3975-0.3975-0.994-0.3975-1.392,0L2.298,9.326C2.0995,9.525,2,9.7235,2,10.022v2.9835
	C2,13.602,2.3975,14,2.9945,14h2.983c0.2985,0,0.4975-0.0995,0.6965-0.2985L13.635,6.74c0.398-0.3975,0.398-0.994,0-1.392
	L10.6515,2.3645z M5.58,12.011H3.9885V10.42l5.967-5.967l1.591,1.591L5.58,12.011z"/>
<!-- <circle data-color="color-2" fill="#ffffff" cx="3" cy="14" r="2"/>
<circle data-color="color-2" fill="#ffffff" cx="13" cy="14" r="2"/>
 --></g>

<g  transform="translate(80, 0)">
<path fill="#ffffff" d="M15,1H1C0.4,1,0,1.4,0,2v12c0,0.6,0.4,1,1,1h14c0.6,0,1-0.4,1-1V2C16,1.4,15.6,1,15,1z M14,13H2V6.7l5.5,3.1
	C7.7,10,7.8,10,8,10s0.3,0,0.5-0.1L14,6.7V13z M14,4.4L8,7.8L2,4.4V3h12V4.4z"/>
</g>



<g  transform="translate(64, 0)"><path fill="#ffffff" d="M15,16H1c-0.6,0-1-0.4-1-1V1c0-0.6,0.4-1,1-1h14c0.6,0,1,0.4,1,1v14C16,15.6,15.6,16,15,16z M2,14h12V2H2V14
	z"/>
<path data-color="color-2" fill="#ffffff" d="M6,4c0.6,0,1,0.4,1,1S6.6,6,6,6S5,5.6,5,5S5.4,4,6,4z"/>
<polygon data-color="color-2" fill="#ffffff" points="3,12 5,8 7,10 10,6 13,12 "/>
</g>

<g  transform="translate(32, 0)">
<path fill="#ffffff" d="M3,16h10c0.6,0,1-0.4,1-1V7.5l0.3,0.3C14.5,7.9,14.8,8,15,8c0.3,0,0.6-0.1,0.8-0.3c0.4-0.4,0.3-1-0.1-1.4
	l-7-6c-0.4-0.3-0.9-0.3-1.3,0L4,3.1V2c0-0.6-0.4-1-1-1S2,1.4,2,2v2.8L0.3,6.2c-0.4,0.4-0.5,1-0.1,1.4c0.4,0.4,1,0.5,1.4,0.1L2,7.5
	V15C2,15.6,2.4,16,3,16z M4,5.7l4-3.4l4,3.5c0,0.1,0,0.1,0,0.2v8h-2v-3c0-0.6-0.4-1-1-1H7c-0.6,0-1,0.4-1,1v3H4V5.7z"/>
<rect data-color="color-2" x="6" y="6" fill="#ffffff" width="4" height="2"/>
</g>

<!-- <g  transform="translate(48, 0)">
<circle data-color="color-2" fill="#ffffff" cx="6" cy="8" r="2"/>
<path fill="#ffffff" d="M10,2H6C2.7,2,0,4.7,0,8s2.7,6,6,6h4c3.3,0,6-2.7,6-6S13.3,2,10,2z M10,12H6c-2.2,0-4-1.8-4-4s1.8-4,4-4h4
	c2.2,0,4,1.8,4,4S12.2,12,10,12z"/>
</g> -->

<g  transform="translate(48, 0)">
<path fill="#ffffff" d="M11,3h-1C9.4,3,9,3.4,9,4s0.4,1,1,1h1c1.7,0,3,1.3,3,3s-1.3,3-3,3h-1c-0.6,0-1,0.4-1,1s0.4,1,1,1h1
	c2.8,0,5-2.2,5-5S13.8,3,11,3z"/>
	<path fill="#ffffff" d="M6,11H5c-1.7,0-3-1.3-3-3s1.3-3,3-3h1c0.6,0,1-0.4,1-1S6.6,3,6,3H5C2.2,3,0,5.2,0,8s2.2,5,5,5h1
	c0.6,0,1-0.4,1-1S6.6,11,6,11z"/>
	<path data-color="color-2" fill="#ffffff" d="M4,8c0,0.6,0.4,1,1,1h6c0.6,0,1-0.4,1-1s-0.4-1-1-1H5C4.4,7,4,7.4,4,8z"/>
</g>
<!-- 
<g  transform="translate(64, 0)">
<path fill="#ffffff" d="M6,0H1C0.4,0,0,0.4,0,1v5c0,0.6,0.4,1,1,1h5c0.6,0,1-0.4,1-1V1C7,0.4,6.6,0,6,0z M5,5H2V2h3V5z"/>
<path fill="#ffffff" d="M15,0h-5C9.4,0,9,0.4,9,1v5c0,0.6,0.4,1,1,1h5c0.6,0,1-0.4,1-1V1C16,0.4,15.6,0,15,0z M14,5h-3V2h3V5z"/>
<path fill="#ffffff" d="M6,9H1c-0.6,0-1,0.4-1,1v5c0,0.6,0.4,1,1,1h5c0.6,0,1-0.4,1-1v-5C7,9.4,6.6,9,6,9z M5,14H2v-3h3V14z"/>
<path fill="#ffffff" d="M15,9h-5c-0.6,0-1,0.4-1,1v5c0,0.6,0.4,1,1,1h5c0.6,0,1-0.4,1-1v-5C16,9.4,15.6,9,15,9z M14,14h-3v-3h3V14z"/>
</g> -->

<g  transform="translate(16, 0)">
<path fill="#ffffff" d="M15.9,7.1C16,6.6,15.6,6.1,15.1,6c-0.5-0.1-1.1,0.3-1.1,0.8C13.5,9.8,11,12,8,12
	S2.5,9.8,2.1,6.9C2,6.3,1.5,5.9,0.9,6C0.4,6.1,0,6.6,0.1,7.1c0.5,3.6,3.4,6.3,6.9,6.8V16h2v-2.1C12.5,13.5,15.4,10.7,15.9,7.1z"/>

	<path fill="#ffffff" d="M8,10c2.2,0,4-1.8,4-4V4c0-2.2-1.8-4-4-4S4,1.8,4,4v2C4,8.2,5.8,10,8,10z M6,4c0-1.1,0.9-2,2-2s2,0.9,2,2v2
	c0,1.1-0.9,2-2,2S6,7.1,6,6V4z"/>
</g>


</svg>